<?xml version="1.0" encoding="utf-8"?>
<svg viewBox="0 0 500 500" xmlns="http://www.w3.org/2000/svg" xmlns:bx="https://boxy-svg.com">
  <path style="fill: rgb(255, 255, 255);" transform="matrix(0, 0.83949, -0.83949, 0, 565.144409, -39.959709)" d="M 310.042 85.352 L 381.158 85.352 L 404.122 165.333 A 218.644 218.644 0 0 1 453.182 185.655 L 525.976 145.337 L 576.263 195.624 L 535.945 268.418 A 218.644 218.644 0 0 1 556.267 317.478 L 636.248 340.442 L 636.248 411.558 L 556.267 434.522 A 218.644 218.644 0 0 1 535.945 483.582 L 576.263 556.376 L 525.976 606.663 L 453.182 566.345 A 218.644 218.644 0 0 1 404.122 586.667 L 381.158 666.648 L 310.042 666.648 L 287.078 586.667 A 218.644 218.644 0 0 1 238.018 566.345 L 165.224 606.663 L 114.937 556.376 L 155.255 483.582 A 218.644 218.644 0 0 1 134.933 434.522 L 54.952 411.558 L 54.952 340.442 L 134.933 317.478 A 218.644 218.644 0 0 1 155.255 268.418 L 114.937 195.624 L 165.224 145.337 L 238.018 185.655 A 218.644 218.644 0 0 1 287.078 165.333 Z M 345.6 290.831 A 85.169 85.169 0 0 0 345.6 461.169 A 85.169 85.169 0 0 0 345.6 290.831" bx:shape="cog 345.6 376 85.169 218.644 290.648 0.38 8 1@b7e203d1"/>
</svg>